<svg width="51" height="51" viewBox="0 0 51 51" fill="none" xmlns="http://www.w3.org/2000/svg">
<path d="M0.5 6.75C0.5 5.0924 1.15848 3.50268 2.33058 2.33058C3.50268 1.15848 5.0924 0.5 6.75 0.5H9.875V11.4375C9.875 12.6807 10.3689 13.873 11.2479 14.7521C12.127 15.6311 13.3193 16.125 14.5625 16.125H27.0625C28.3057 16.125 29.498 15.6311 30.3771 14.7521C31.2561 13.873 31.75 12.6807 31.75 11.4375V0.5H32.9344C34.5918 0.500354 36.1813 1.15907 37.3531 2.33125L42.4187 7.39687C43.5909 8.5687 44.2496 10.1582 44.25 11.8156V21.125C41.8318 19.8882 39.1536 19.2454 36.4375 19.25C32.7594 19.25 29.35 20.4063 26.5531 22.375H11.4375C10.1943 22.375 9.00201 22.8689 8.12294 23.7479C7.24386 24.627 6.75 25.8193 6.75 27.0625V44.25C5.0924 44.25 3.50268 43.5915 2.33058 42.4194C1.15848 41.2473 0.5 39.6576 0.5 38V6.75ZM19.25 36.4375C19.25 32.2812 20.725 28.4687 23.1781 25.5H11.4375C11.0231 25.5 10.6257 25.6646 10.3326 25.9576C10.0396 26.2507 9.875 26.6481 9.875 27.0625V44.25H21.125C19.8882 41.8318 19.2454 39.1536 19.25 36.4375V36.4375ZM28.625 0.5H13V11.4375C13 11.8519 13.1646 12.2493 13.4576 12.5424C13.7507 12.8354 14.1481 13 14.5625 13H27.0625C27.4769 13 27.8743 12.8354 28.1674 12.5424C28.4604 12.2493 28.625 11.8519 28.625 11.4375V0.5ZM22.375 36.4375C22.375 40.1671 23.8566 43.744 26.4938 46.3812C29.131 49.0184 32.7079 50.5 36.4375 50.5C40.1671 50.5 43.744 49.0184 46.3812 46.3812C49.0184 43.744 50.5 40.1671 50.5 36.4375C50.5 32.7079 49.0184 29.131 46.3812 26.4938C43.744 23.8566 40.1671 22.375 36.4375 22.375C32.7079 22.375 29.131 23.8566 26.4938 26.4938C23.8566 29.131 22.375 32.7079 22.375 36.4375V36.4375ZM42.6875 27.0625C43.1019 27.0625 43.4993 27.2271 43.7924 27.5201C44.0854 27.8132 44.25 28.2106 44.25 28.625V33.3125C44.25 33.7269 44.0854 34.1243 43.7924 34.4174C43.4993 34.7104 43.1019 34.875 42.6875 34.875H38C37.5856 34.875 37.1882 34.7104 36.8951 34.4174C36.6021 34.1243 36.4375 33.7269 36.4375 33.3125C36.4375 32.8981 36.6021 32.5007 36.8951 32.2076C37.1882 31.9146 37.5856 31.75 38 31.75H39.4625C38.2756 31.0925 36.9069 30.8394 35.5634 31.0288C34.2198 31.2183 32.9745 31.84 32.0156 32.8C31.7188 33.0728 31.3279 33.2204 30.9248 33.2117C30.5217 33.2031 30.1376 33.039 29.8527 32.7537C29.5677 32.4684 29.4042 32.084 29.3961 31.6808C29.388 31.2777 29.5361 30.8871 29.8094 30.5906C31.2688 29.1319 33.1686 28.1952 35.2143 27.9257C37.2601 27.6562 39.3376 28.069 41.125 29.1V28.625C41.125 28.2106 41.2896 27.8132 41.5826 27.5201C41.8757 27.2271 42.2731 27.0625 42.6875 27.0625ZM39.95 44.35C38.6294 44.8836 37.2045 45.1091 35.7836 45.0095C34.3627 44.9099 32.9833 44.4877 31.75 43.775V44.25C31.75 44.6644 31.5854 45.0618 31.2924 45.3549C30.9993 45.6479 30.6019 45.8125 30.1875 45.8125C29.7731 45.8125 29.3757 45.6479 29.0826 45.3549C28.7896 45.0618 28.625 44.6644 28.625 44.25V39.5625C28.625 39.1481 28.7896 38.7507 29.0826 38.4576C29.3757 38.1646 29.7731 38 30.1875 38H34.875C35.2894 38 35.6868 38.1646 35.9799 38.4576C36.2729 38.7507 36.4375 39.1481 36.4375 39.5625C36.4375 39.9769 36.2729 40.3743 35.9799 40.6674C35.6868 40.9604 35.2894 41.125 34.875 41.125H33.4125C34.5994 41.7825 35.9681 42.0356 37.3116 41.8462C38.6552 41.6567 39.9005 41.035 40.8594 40.075C41.1562 39.8022 41.5471 39.6546 41.9502 39.6633C42.3533 39.6719 42.7374 39.836 43.0223 40.1213C43.3072 40.4066 43.4708 40.791 43.4789 41.1942C43.487 41.5973 43.3389 41.9879 43.0656 42.2844C42.1781 43.175 41.1156 43.8781 39.95 44.3469V44.35Z" fill="white"/>
</svg>
