<svg width="128" height="128" viewBox="0 0 128 128" fill="none" xmlns="http://www.w3.org/2000/svg">
<path fill-rule="evenodd" clip-rule="evenodd" d="M24.4018 24.402C13.8997 34.904 7.99976 49.1478 7.99976 64C7.99976 78.8521 13.8997 93.0959 24.4018 103.598C34.9038 114.1 49.1476 120 63.9998 120C78.8519 120 93.0957 114.1 103.598 103.598C114.1 93.0959 120 78.8521 120 64C120 49.1478 114.1 34.904 103.598 24.402C93.0957 13.8999 78.8519 7.99996 63.9998 7.99996C49.1476 7.99996 34.9038 13.8999 24.4018 24.402V24.402ZM109.255 109.255C97.2523 121.257 80.9736 128 63.9998 128C47.0259 128 30.7473 121.257 18.7449 109.255C6.74259 97.2525 -0.000244647 80.9738 -0.000244647 64C-0.000244647 47.0261 6.74259 30.7475 18.7449 18.7451C30.7473 6.7428 47.0259 -3.59563e-05 63.9998 -3.59563e-05C80.9736 -3.59563e-05 97.2523 6.7428 109.255 18.7451C121.257 30.7475 128 47.0261 128 64C128 80.9738 121.257 97.2525 109.255 109.255V109.255ZM92.0012 59.7121C93.0626 59.7128 94.0803 60.1352 94.8304 60.8863C95.5804 61.6374 96.0013 62.6557 96.0006 63.7171C95.9998 64.7786 95.5774 65.7963 94.8264 66.5463C94.0753 67.2963 93.057 67.7173 91.9955 67.7165L45.6546 67.7165L61.3128 83.3747C62.0629 84.1248 62.4843 85.1422 62.4843 86.2031C62.4843 87.264 62.0629 88.2814 61.3128 89.0315C60.5626 89.7817 59.5452 90.2031 58.4843 90.2031C57.4235 90.2031 56.406 89.7817 55.6559 89.0315L33.1699 66.5455C32.4198 65.7954 31.9983 64.778 31.9983 63.7171C31.9983 62.6563 32.4198 61.6388 33.1699 60.8887L55.6559 38.4027C56.406 37.6526 57.4235 37.2311 58.4843 37.2311C59.5452 37.2311 60.5626 37.6526 61.3128 38.4027C62.0629 39.1528 62.4843 40.1703 62.4843 41.2311C62.4843 42.292 62.0629 43.3094 61.3128 44.0596L45.6546 59.7177L92.0012 59.7121V59.7121Z" fill="black"/>
</svg>
