<svg width="100" height="100" viewBox="0 0 100 100" fill="none" xmlns="http://www.w3.org/2000/svg">
<path d="M78.5714 3.32889e-08C84.0372 -0.000304441 89.2965 2.08804 93.2733 5.83774C97.25 9.58744 99.6436 14.7151 99.9643 20.1714L100 21.4286V50H71.4286L70.1714 50.0357C64.9315 50.3434 59.9867 52.5636 56.2752 56.2752C52.5636 59.9867 50.3434 64.9315 50.0357 70.1714L50 71.4286V100H21.4286C15.9628 100 10.7035 97.912 6.72671 94.1623C2.74995 90.4126 0.356375 85.2849 0.0357151 79.8286L3.32889e-08 78.5714V21.4286C-0.000304441 15.9628 2.08804 10.7035 5.83774 6.72671C9.58744 2.74995 14.7151 0.356375 20.1714 0.0357151L21.4286 3.32889e-08H78.5714ZM99.2857 57.15C98.732 58.8486 97.8647 60.4283 96.7286 61.8071L95.8143 62.8071L62.8071 95.8143C61.2071 97.4143 59.2643 98.6 57.15 99.2928L57.1429 71.4286L57.1786 70.3571C57.4342 66.9559 58.8983 63.7584 61.3061 61.3426C63.714 58.9269 66.9068 57.4524 70.3071 57.1857L71.4286 57.1429L99.2857 57.15Z" fill="black"/>
</svg>
