<svg width="100" height="100" viewBox="0 0 100 100" fill="none" xmlns="http://www.w3.org/2000/svg">
<path d="M98.862 39.2008C98.7512 38.7018 98.5345 38.2324 98.2265 37.8244C97.9186 37.4164 97.5266 37.0792 97.0771 36.8358L86.4569 30.9456C85.8875 29.7912 85.2467 28.6734 84.5381 27.5989L84.7612 15.4615C84.7653 14.9524 84.6644 14.4479 84.4647 13.9796C84.2651 13.5112 83.9711 13.0891 83.601 12.7395C78.313 7.94504 72.0594 4.33894 65.261 2.16385C64.7728 2.01162 64.2578 1.96473 63.7502 2.02626C63.2425 2.0878 62.7536 2.25637 62.3159 2.52084L51.9188 8.76803C50.6247 8.72341 49.3753 8.72341 48.0812 8.76803L37.6841 2.52084C37.2464 2.25637 36.7575 2.0878 36.2499 2.02626C35.7422 1.96473 35.2272 2.01162 34.739 2.16385C27.9316 4.34059 21.6754 7.96344 16.399 12.7841C16.0257 13.1217 15.729 13.5353 15.5289 13.9971C15.3288 14.4589 15.2299 14.9582 15.2388 15.4615L15.4619 27.5989C14.748 28.6698 14.1232 29.7854 13.4985 30.9456L2.87828 36.8358C2.43527 37.0818 2.0505 37.4204 1.75018 37.8285C1.44986 38.2366 1.24105 38.7047 1.13799 39.2008C-0.37933 46.1696 -0.37933 53.3833 1.13799 60.352C1.24883 60.8511 1.46555 61.3204 1.77349 61.7285C2.08143 62.1365 2.47341 62.4736 2.9229 62.717L13.5431 68.6073C14.1125 69.7617 14.7533 70.8794 15.4619 71.954L15.2388 84.0914C15.2347 84.6005 15.3356 85.1049 15.5353 85.5733C15.7349 86.0416 16.0289 86.4638 16.399 86.8134C21.687 91.6078 27.9406 95.2139 34.739 97.389C35.2272 97.5412 35.7422 97.5881 36.2499 97.5266C36.7575 97.465 37.2464 97.2965 37.6841 97.032L48.0812 90.7848H51.9188L62.3605 97.032C62.9033 97.3889 63.5405 97.5754 64.1901 97.5675C64.553 97.5518 64.9126 97.4919 65.261 97.389C72.0684 95.2122 78.3247 91.5894 83.601 86.7687C83.9743 86.4312 84.271 86.0176 84.4711 85.5557C84.6712 85.0939 84.7701 84.5946 84.7612 84.0914L84.5381 71.954C85.252 70.883 85.8768 69.7674 86.5015 68.6073L97.1217 62.717C97.5647 62.4711 97.9495 62.1325 98.2498 61.7244C98.5501 61.3162 98.759 60.8482 98.862 60.352C100.379 53.3833 100.379 46.1696 98.862 39.2008ZM50 69.4105C46.1168 69.4105 42.3207 68.2589 39.0919 66.1015C35.8631 63.9441 33.3466 60.8777 31.8605 57.29C30.3745 53.7024 29.9856 49.7546 30.7432 45.946C31.5008 42.1374 33.3708 38.6389 36.1166 35.8931C38.8625 33.1472 42.361 31.2772 46.1696 30.5196C49.9782 29.7621 53.926 30.1509 57.5136 31.6369C61.1013 33.123 64.1677 35.6395 66.3251 38.8683C68.4825 42.0971 69.6341 45.8932 69.6341 49.7764C69.6341 54.9837 67.5655 59.9777 63.8834 63.6598C60.2013 67.3419 55.2073 69.4105 50 69.4105Z" fill="black"/>
</svg>
