<svg width="100" height="100" viewBox="0 0 100 100" fill="none" xmlns="http://www.w3.org/2000/svg">
<path d="M35.7143 65.65L67.0143 50L35.7143 34.35V65.65Z" fill="black"/>
<path d="M50 0C40.111 0 30.444 2.93245 22.2215 8.42652C13.999 13.9206 7.59043 21.7295 3.80604 30.8658C0.0216642 40.0021 -0.968502 50.0555 0.960758 59.7545C2.89002 69.4536 7.65206 78.3627 14.6447 85.3553C21.6373 92.3479 30.5465 97.11 40.2455 99.0392C49.9445 100.968 59.9979 99.9783 69.1342 96.194C78.2705 92.4096 86.0794 86.0009 91.5735 77.7785C97.0676 69.556 100 59.8891 100 50C100 36.7392 94.7322 24.0215 85.3553 14.6447C75.9785 5.26784 63.2608 0 50 0ZM76.5964 53.1964L33.7393 74.625C33.1947 74.8971 32.5895 75.0255 31.9813 74.998C31.3731 74.9704 30.782 74.7879 30.2642 74.4676C29.7464 74.1473 29.3191 73.7 29.0228 73.1681C28.7265 72.6362 28.5712 72.0374 28.5714 71.4286V28.5714C28.5718 27.9629 28.7276 27.3645 29.0241 26.8331C29.3206 26.3017 29.748 25.8549 30.2657 25.535C30.7834 25.2152 31.3743 25.0329 31.9822 25.0055C32.5901 24.9781 33.1949 25.1065 33.7393 25.3786L76.5964 46.8071C77.1889 47.1041 77.687 47.56 78.0351 48.1238C78.3832 48.6877 78.5676 49.3373 78.5676 50C78.5676 50.6627 78.3832 51.3123 78.0351 51.8762C77.687 52.44 77.1889 52.8959 76.5964 53.1928V53.1964Z" fill="black"/>
</svg>
