<svg width="100" height="100" viewBox="0 0 100 100" fill="none" xmlns="http://www.w3.org/2000/svg">
<path fill-rule="evenodd" clip-rule="evenodd" d="M49.75 0C45.4375 0 38.2313 1.65625 31.45 3.5C24.5125 5.375 17.5188 7.59375 13.4063 8.9375C11.6869 9.50532 10.1625 10.5467 9.00826 11.9419C7.85405 13.3371 7.11683 15.0296 6.88128 16.825C3.15628 44.8063 11.8 65.5438 22.2875 79.2625C26.7349 85.131 32.0377 90.299 38.0188 94.5938C40.4313 96.3 42.6688 97.6063 44.5688 98.5C46.3188 99.325 48.2 100 49.75 100C51.3 100 53.175 99.325 54.9313 98.5C57.2218 97.3867 59.4131 96.0799 61.4813 94.5938C67.4625 90.2991 72.7653 85.1311 77.2125 79.2625C87.7 65.5438 96.3438 44.8063 92.6188 16.825C92.3836 15.0288 91.6466 13.3353 90.4925 11.939C89.3383 10.5427 87.8137 9.50019 86.0938 8.93125C80.1238 6.97383 74.1075 5.16081 68.05 3.49375C61.2688 1.6625 54.0625 0 49.75 0ZM49.75 31.25C51.964 31.2467 54.1077 32.0271 55.8015 33.4529C57.4953 34.8787 58.6298 36.8579 59.0041 39.0401C59.3784 41.2222 58.9683 43.4664 57.8465 45.3751C56.7247 47.2839 54.9636 48.7341 52.875 49.4688L55.2813 61.9062C55.3688 62.3586 55.3553 62.8248 55.2415 63.2713C55.1278 63.7178 54.9168 64.1336 54.6235 64.489C54.3302 64.8444 53.962 65.1305 53.5452 65.3269C53.1284 65.5233 52.6733 65.6251 52.2125 65.625H47.2875C46.8273 65.6242 46.3729 65.5217 45.9569 65.3249C45.5408 65.1281 45.1734 64.8419 44.8808 64.4866C44.5882 64.1313 44.3778 63.7158 44.2644 63.2698C44.151 62.8237 44.1376 62.3581 44.225 61.9062L46.625 49.4688C44.5365 48.7341 42.7754 47.2839 41.6536 45.3751C40.5318 43.4664 40.1217 41.2222 40.496 39.0401C40.8703 36.8579 42.0048 34.8787 43.6986 33.4529C45.3923 32.0271 47.536 31.2467 49.75 31.25Z" fill="black"/>
</svg>
