<svg width="374" height="457" viewBox="0 0 374 457" fill="none" xmlns="http://www.w3.org/2000/svg">
<path d="M103.333 61.6667V311.667C103.333 322.717 107.723 333.315 115.537 341.129C123.351 348.943 133.949 353.333 145 353.333H311.667C322.718 353.333 333.316 348.943 341.13 341.129C348.944 333.315 353.334 322.717 353.334 311.667V129.208C353.333 123.657 352.223 118.163 350.069 113.047C347.916 107.931 344.761 103.297 340.792 99.4167L271.729 31.875C263.945 24.2637 253.491 20.0014 242.604 20H145C133.949 20 123.351 24.3899 115.537 32.2039C107.723 40.0179 103.333 50.616 103.333 61.6667V61.6667Z" stroke="white" stroke-width="40" stroke-linecap="round" stroke-linejoin="round"/>
<path d="M270 353.333V395C270 406.051 265.61 416.649 257.796 424.463C249.982 432.277 239.384 436.667 228.333 436.667H61.6667C50.616 436.667 40.0179 432.277 32.2039 424.463C24.3899 416.649 20 406.051 20 395V165.833C20 154.783 24.3899 144.185 32.2039 136.371C40.0179 128.557 50.616 124.167 61.6667 124.167H103.333" stroke="white" stroke-width="40" stroke-linecap="round" stroke-linejoin="round"/>
</svg>
