<svg width="128" height="128" viewBox="0 0 128 128" fill="none" xmlns="http://www.w3.org/2000/svg">
<path d="M60.72 81.4667C66.6453 81.4453 79.6 81.3973 79.4506 73.1573C79.3066 64.7307 66.864 65.2373 60.8 65.488C60.1226 65.5147 59.52 65.5413 59.0293 65.5467L59.3066 81.4773C59.7066 81.4667 60.1866 81.4667 60.72 81.4667V81.4667ZM60.0906 58.2507C65.0346 58.2453 75.824 58.2347 75.696 50.7413C75.5573 43.0773 65.1946 43.5307 60.1333 43.7547C59.5626 43.7813 59.0666 43.8027 58.6506 43.808L58.9013 58.256L60.0906 58.2507Z" fill="white"/>
<path fill-rule="evenodd" clip-rule="evenodd" d="M48.5119 126.085C82.8053 134.635 117.536 113.765 126.085 79.4827C134.635 45.1947 113.76 10.464 79.4666 1.92C45.1946 -6.63467 10.4639 14.24 1.91994 48.5333C-6.62939 82.816 14.2399 117.547 48.5173 126.091L48.5119 126.085ZM71.3493 35.312C80.7039 35.9733 88.1493 38.7147 89.1253 47.2693C89.8506 53.5307 87.2906 57.344 83.1359 59.552C90.0693 61.088 94.4693 65.1147 93.776 74.3307C92.9173 85.7707 84.4533 88.9867 72.3039 89.8933L72.5066 101.893L65.2746 102.027L65.0666 90.1867C63.1946 90.2187 61.2746 90.24 59.2853 90.2293L59.4986 102.123L52.2666 102.251L52.0533 90.2293L50.0106 90.2453C48.9759 90.2507 47.9306 90.256 46.8853 90.2773L37.4666 90.4373L38.7519 81.776C38.7519 81.776 44.1066 81.7653 44.0106 81.6853C46.0586 81.6427 46.5759 80.1653 46.6879 79.2373L46.3626 60.2667L46.8799 60.256H47.1253C46.8704 60.2268 46.6138 60.2143 46.3573 60.2187L46.1226 46.672C45.8186 45.2107 44.8373 43.5253 41.9093 43.5787C41.9893 43.472 36.6506 43.6693 36.6506 43.6693L36.5119 35.9467L46.4959 35.776V35.8133C47.9946 35.7867 49.5359 35.7333 51.0986 35.6747L50.8959 23.7867L58.1279 23.664L58.3306 35.312C60.2613 35.2427 62.2026 35.168 64.1066 35.136L63.9039 23.5627L71.1413 23.4347L71.3493 35.3227V35.312Z" fill="white"/>
</svg>
