<svg width="128" height="128" viewBox="0 0 128 128" fill="none" xmlns="http://www.w3.org/2000/svg">
<path d="M112 85.3333V101.333C112 110.171 90.5067 117.333 64 117.333C37.4933 117.333 16 110.171 16 101.333V85.3333C16 94.1707 37.4933 101.333 64 101.333C90.5067 101.333 112 94.1707 112 85.3333ZM64 80C37.4933 80 16 72.8373 16 64V80C16 88.8373 37.4933 96 64 96C90.5067 96 112 88.8373 112 80V64C112 72.8373 90.5067 80 64 80ZM64 10.6667C37.4933 10.6667 16 17.8293 16 26.6667V37.3333C16 46.1707 37.4933 53.3333 64 53.3333C90.5067 53.3333 112 46.1707 112 37.3333V26.6667C112 17.8293 90.5067 10.6667 64 10.6667ZM64 58.6667C37.4933 58.6667 16 51.504 16 42.6667V58.6667C16 67.504 37.4933 74.6667 64 74.6667C90.5067 74.6667 112 67.504 112 58.6667V42.6667C112 51.504 90.5067 58.6667 64 58.6667Z" fill="white"/>
</svg>
