<svg width="100" height="100" viewBox="0 0 100 100" fill="none" xmlns="http://www.w3.org/2000/svg">
<path d="M68.9545 50L97.3835 21.571C100.872 18.0824 100.872 12.4261 97.3835 8.93466L91.0653 2.61648C87.5767 -0.872159 81.9205 -0.872159 78.429 2.61648L50 31.0455L21.571 2.61648C18.0824 -0.872159 12.4261 -0.872159 8.93466 2.61648L2.61648 8.93466C-0.872159 12.4233 -0.872159 18.0795 2.61648 21.571L31.0455 50L2.61648 78.429C-0.872159 81.9176 -0.872159 87.5739 2.61648 91.0653L8.93466 97.3835C12.4233 100.872 18.0824 100.872 21.571 97.3835L50 68.9545L78.429 97.3835C81.9176 100.872 87.5767 100.872 91.0653 97.3835L97.3835 91.0653C100.872 87.5767 100.872 81.9205 97.3835 78.429L68.9545 50Z" fill="black"/>
</svg>
