<svg width="52" height="50" viewBox="0 0 52 50" fill="none" xmlns="http://www.w3.org/2000/svg">
<path d="M40 44C40 43.4583 39.8021 42.9896 39.4062 42.5938C39.0104 42.1979 38.5417 42 38 42C37.4583 42 36.9896 42.1979 36.5938 42.5938C36.1979 42.9896 36 43.4583 36 44C36 44.5417 36.1979 45.0104 36.5938 45.4062C36.9896 45.8021 37.4583 46 38 46C38.5417 46 39.0104 45.8021 39.4062 45.4062C39.8021 45.0104 40 44.5417 40 44ZM48 44C48 43.4583 47.8021 42.9896 47.4062 42.5938C47.0104 42.1979 46.5417 42 46 42C45.4583 42 44.9896 42.1979 44.5938 42.5938C44.1979 42.9896 44 43.4583 44 44C44 44.5417 44.1979 45.0104 44.5938 45.4062C44.9896 45.8021 45.4583 46 46 46C46.5417 46 47.0104 45.8021 47.4062 45.4062C47.8021 45.0104 48 44.5417 48 44ZM52 37V47C52 47.8333 51.7083 48.5417 51.125 49.125C50.5417 49.7083 49.8333 50 49 50H3C2.16667 50 1.45833 49.7083 0.875 49.125C0.291667 48.5417 0 47.8333 0 47V37C0 36.1667 0.291667 35.4583 0.875 34.875C1.45833 34.2917 2.16667 34 3 34H16.3438C16.7812 35.1667 17.5156 36.125 18.5469 36.875C19.5781 37.625 20.7292 38 22 38H30C31.2708 38 32.4219 37.625 33.4531 36.875C34.4844 36.125 35.2188 35.1667 35.6562 34H49C49.8333 34 50.5417 34.2917 51.125 34.875C51.7083 35.4583 52 36.1667 52 37ZM41.8438 16.75C41.4896 17.5833 40.875 18 40 18H32V32C32 32.5417 31.8021 33.0104 31.4062 33.4062C31.0104 33.8021 30.5417 34 30 34H22C21.4583 34 20.9896 33.8021 20.5938 33.4062C20.1979 33.0104 20 32.5417 20 32V18H12C11.125 18 10.5104 17.5833 10.1562 16.75C9.80208 15.9375 9.94792 15.2188 10.5938 14.5938L24.5938 0.59375C24.9688 0.197917 25.4375 0 26 0C26.5625 0 27.0312 0.197917 27.4062 0.59375L41.4062 14.5938C42.0521 15.2188 42.1979 15.9375 41.8438 16.75Z" fill="white"/>
</svg>
