<svg width="55" height="50" viewBox="0 0 55 50" fill="none" xmlns="http://www.w3.org/2000/svg">
<path d="M41.6667 43.75C41.6667 43.1858 41.4605 42.6975 41.0482 42.2852C40.6358 41.8728 40.1476 41.6667 39.5833 41.6667C39.0191 41.6667 38.5308 41.8728 38.1185 42.2852C37.7062 42.6975 37.5 43.1858 37.5 43.75C37.5 44.3142 37.7062 44.8025 38.1185 45.2148C38.5308 45.6272 39.0191 45.8333 39.5833 45.8333C40.1476 45.8333 40.6358 45.6272 41.0482 45.2148C41.4605 44.8025 41.6667 44.3142 41.6667 43.75ZM50 43.75C50 43.1858 49.7938 42.6975 49.3815 42.2852C48.9692 41.8728 48.4809 41.6667 47.9167 41.6667C47.3524 41.6667 46.8641 41.8728 46.4518 42.2852C46.0395 42.6975 45.8333 43.1858 45.8333 43.75C45.8333 44.3142 46.0395 44.8025 46.4518 45.2148C46.8641 45.6272 47.3524 45.8333 47.9167 45.8333C48.4809 45.8333 48.9692 45.6272 49.3815 45.2148C49.7938 44.8025 50 44.3142 50 43.75ZM54.1667 36.4583V46.875C54.1667 47.7431 53.8628 48.4809 53.2552 49.0885C52.6476 49.6962 51.9097 50 51.0417 50H3.125C2.25694 50 1.5191 49.6962 0.911458 49.0885C0.303819 48.4809 0 47.7431 0 46.875V36.4583C0 35.5903 0.303819 34.8524 0.911458 34.2448C1.5191 33.6372 2.25694 33.3333 3.125 33.3333H18.2617L22.6562 37.7604C23.9149 38.9757 25.3906 39.5833 27.0833 39.5833C28.776 39.5833 30.2517 38.9757 31.5104 37.7604L35.9375 33.3333H51.0417C51.9097 33.3333 52.6476 33.6372 53.2552 34.2448C53.8628 34.8524 54.1667 35.5903 54.1667 36.4583ZM43.5872 17.9362C43.9562 18.826 43.8043 19.5855 43.1315 20.2148L28.5482 34.7982C28.1576 35.2105 27.6693 35.4167 27.0833 35.4167C26.4974 35.4167 26.0091 35.2105 25.6185 34.7982L11.0352 20.2148C10.3624 19.5855 10.2105 18.826 10.5794 17.9362C10.9484 17.0898 11.5885 16.6667 12.5 16.6667H20.8333V2.08333C20.8333 1.5191 21.0395 1.03082 21.4518 0.61849C21.8641 0.206163 22.3524 0 22.9167 0H31.25C31.8142 0 32.3025 0.206163 32.7148 0.61849C33.1272 1.03082 33.3333 1.5191 33.3333 2.08333V16.6667H41.6667C42.5781 16.6667 43.2183 17.0898 43.5872 17.9362Z" fill="white"/>
</svg>
