<svg width="100" height="100" viewBox="0 0 100 100" fill="none" xmlns="http://www.w3.org/2000/svg">
<path d="M96 90.5H4C1.7875 90.5 0 92.2875 0 94.5V99C0 99.55 0.45 100 1 100H99C99.55 100 100 99.55 100 99V94.5C100 92.2875 98.2125 90.5 96 90.5ZM18.2125 80C18.4625 80 18.7125 79.975 18.9625 79.9375L39.9875 76.25C40.2375 76.2 40.475 76.0875 40.65 75.9L93.6375 22.9125C93.7534 22.7969 93.8453 22.6595 93.908 22.5083C93.9708 22.3571 94.0031 22.195 94.0031 22.0312C94.0031 21.8675 93.9708 21.7054 93.908 21.5542C93.8453 21.403 93.7534 21.2656 93.6375 21.15L72.8625 0.3625C72.625 0.125 72.3125 0 71.975 0C71.6375 0 71.325 0.125 71.0875 0.3625L18.1 53.35C17.9125 53.5375 17.8 53.7625 17.75 54.0125L14.0625 75.0375C13.9409 75.7071 13.9843 76.3963 14.1891 77.0454C14.3938 77.6945 14.7537 78.2838 15.2375 78.7625C16.0625 79.5625 17.1 80 18.2125 80Z" fill="white"/>
</svg>
