<svg width="540" height="457" viewBox="0 0 540 457" fill="none" xmlns="http://www.w3.org/2000/svg">
<path d="M136.664 361.442C88.6817 327.373 50.712 283.058 29.2565 255.074C23.2568 247.35 20 237.847 20 228.066C20 218.286 23.2568 208.783 29.2565 201.059C68.0844 150.372 161.24 46.0067 270 46.0067C318.789 46.0067 364.405 66.9941 403.415 94.7432" stroke="black" stroke-width="40" stroke-linecap="round" stroke-linejoin="round"/>
<path d="M217.996 402.402C234.88 407.428 252.394 410.02 270.009 410.1C378.769 410.1 471.925 305.735 510.753 255.048C516.751 247.317 520.005 237.808 520 228.023C519.995 218.238 516.733 208.732 510.727 201.007C497.081 183.205 482.442 166.187 466.88 150.033M325.404 173.101C318.181 165.759 309.577 159.919 300.086 155.918C290.596 151.918 280.407 149.836 270.108 149.793C259.809 149.75 249.603 151.746 240.08 155.667C230.556 159.588 221.903 165.355 214.619 172.637C207.336 179.919 201.566 188.571 197.643 198.094C193.72 207.616 191.721 217.822 191.762 228.121C191.803 238.42 193.882 248.609 197.88 258.1C201.879 267.592 207.717 276.198 215.057 283.422L325.404 173.101ZM61.9561 436.107L478.063 20L61.9561 436.107Z" stroke="black" stroke-width="40" stroke-linecap="round" stroke-linejoin="round"/>
</svg>
