<svg width="540" height="405" viewBox="0 0 540 405" fill="none" xmlns="http://www.w3.org/2000/svg">
<path d="M510.754 175.056C523.082 191.181 523.082 212.949 510.754 229.047C471.925 279.736 378.767 384.103 270.004 384.103C161.241 384.103 68.0826 279.736 29.2535 229.047C23.2558 221.327 20 211.828 20 202.052C20 192.275 23.2558 182.777 29.2535 175.056C68.0826 124.368 161.241 20 270.004 20C378.767 20 471.925 124.368 510.754 175.056V175.056Z" stroke="black" stroke-width="40" stroke-linecap="round" stroke-linejoin="round"/>
<path d="M270.016 280.074C313.107 280.074 348.038 245.142 348.038 202.052C348.038 158.961 313.107 124.03 270.016 124.03C226.926 124.03 191.994 158.961 191.994 202.052C191.994 245.142 226.926 280.074 270.016 280.074Z" stroke="black" stroke-width="40" stroke-linecap="round" stroke-linejoin="round"/>
</svg>
