<svg width="128" height="128" viewBox="0 0 128 128" fill="none" xmlns="http://www.w3.org/2000/svg">
<path d="M33.7778 21.3333C30.4773 21.3333 27.312 22.6444 24.9782 24.9782C22.6444 27.312 21.3333 30.4773 21.3333 33.7778V48C21.3333 51.3005 22.6444 54.4658 24.9782 56.7996C27.312 59.1333 30.4773 60.4444 33.7778 60.4444H48C51.3005 60.4444 54.4658 59.1333 56.7996 56.7996C59.1333 54.4658 60.4444 51.3005 60.4444 48V33.7778C60.4444 30.4773 59.1333 27.312 56.7996 24.9782C54.4658 22.6444 51.3005 21.3333 48 21.3333H33.7778ZM33.7778 67.5556C30.4773 67.5556 27.312 68.8667 24.9782 71.2004C22.6444 73.5342 21.3333 76.6995 21.3333 80V94.2222C21.3333 97.5227 22.6444 100.688 24.9782 103.022C27.312 105.356 30.4773 106.667 33.7778 106.667H48C51.3005 106.667 54.4658 105.356 56.7996 103.022C59.1333 100.688 60.4444 97.5227 60.4444 94.2222V80C60.4444 76.6995 59.1333 73.5342 56.7996 71.2004C54.4658 68.8667 51.3005 67.5556 48 67.5556H33.7778ZM80 21.3333C76.6995 21.3333 73.5342 22.6444 71.2004 24.9782C68.8667 27.312 67.5556 30.4773 67.5556 33.7778V48C67.5556 51.3005 68.8667 54.4658 71.2004 56.7996C73.5342 59.1333 76.6995 60.4444 80 60.4444H94.2222C97.5227 60.4444 100.688 59.1333 103.022 56.7996C105.356 54.4658 106.667 51.3005 106.667 48V33.7778C106.667 30.4773 105.356 27.312 103.022 24.9782C100.688 22.6444 97.5227 21.3333 94.2222 21.3333H80ZM80 67.5556C76.6995 67.5556 73.5342 68.8667 71.2004 71.2004C68.8667 73.5342 67.5556 76.6995 67.5556 80V94.2222C67.5556 97.5227 68.8667 100.688 71.2004 103.022C73.5342 105.356 76.6995 106.667 80 106.667H94.2222C97.5227 106.667 100.688 105.356 103.022 103.022C105.356 100.688 106.667 97.5227 106.667 94.2222V80C106.667 76.6995 105.356 73.5342 103.022 71.2004C100.688 68.8667 97.5227 67.5556 94.2222 67.5556H80ZM0 22.2222C0 16.3285 2.34126 10.6762 6.50874 6.50874C10.6762 2.34126 16.3285 0 22.2222 0H105.778C111.671 0 117.324 2.34126 121.491 6.50874C125.659 10.6762 128 16.3285 128 22.2222V105.778C128 111.671 125.659 117.324 121.491 121.491C117.324 125.659 111.671 128 105.778 128H22.2222C16.3285 128 10.6762 125.659 6.50874 121.491C2.34126 117.324 0 111.671 0 105.778V22.2222ZM22.2222 8.88889C18.686 8.88889 15.2946 10.2936 12.7941 12.7941C10.2936 15.2946 8.88889 18.686 8.88889 22.2222V105.778C8.88889 109.314 10.2936 112.705 12.7941 115.206C15.2946 117.706 18.686 119.111 22.2222 119.111H105.778C109.314 119.111 112.705 117.706 115.206 115.206C117.706 112.705 119.111 109.314 119.111 105.778V22.2222C119.111 18.686 117.706 15.2946 115.206 12.7941C112.705 10.2936 109.314 8.88889 105.778 8.88889H22.2222Z" fill="white"/>
</svg>
