<svg width="128" height="128" viewBox="0 0 128 128" fill="none" xmlns="http://www.w3.org/2000/svg">
<path d="M7.11111 56.8889H49.7778C51.6638 56.8889 53.4725 56.1397 54.8061 54.8061C56.1397 53.4725 56.8889 51.6638 56.8889 49.7778V7.11111C56.8889 5.22513 56.1397 3.41639 54.8061 2.0828C53.4725 0.749204 51.6638 0 49.7778 0H7.11111C5.22513 0 3.41639 0.749204 2.0828 2.0828C0.749204 3.41639 0 5.22513 0 7.11111V49.7778C0 51.6638 0.749204 53.4725 2.0828 54.8061C3.41639 56.1397 5.22513 56.8889 7.11111 56.8889ZM78.2222 56.8889H120.889C122.775 56.8889 124.584 56.1397 125.917 54.8061C127.251 53.4725 128 51.6638 128 49.7778V7.11111C128 5.22513 127.251 3.41639 125.917 2.0828C124.584 0.749204 122.775 0 120.889 0H78.2222C76.3362 0 74.5275 0.749204 73.1939 2.0828C71.8603 3.41639 71.1111 5.22513 71.1111 7.11111V49.7778C71.1111 51.6638 71.8603 53.4725 73.1939 54.8061C74.5275 56.1397 76.3362 56.8889 78.2222 56.8889ZM7.11111 128H49.7778C51.6638 128 53.4725 127.251 54.8061 125.917C56.1397 124.584 56.8889 122.775 56.8889 120.889V78.2222C56.8889 76.3362 56.1397 74.5275 54.8061 73.1939C53.4725 71.8603 51.6638 71.1111 49.7778 71.1111H7.11111C5.22513 71.1111 3.41639 71.8603 2.0828 73.1939C0.749204 74.5275 0 76.3362 0 78.2222V120.889C0 122.775 0.749204 124.584 2.0828 125.917C3.41639 127.251 5.22513 128 7.11111 128ZM99.5556 128C115.243 128 128 115.243 128 99.5556C128 83.8684 115.243 71.1111 99.5556 71.1111C83.8684 71.1111 71.1111 83.8684 71.1111 99.5556C71.1111 115.243 83.8684 128 99.5556 128Z" fill="white"/>
</svg>
