<svg width="56" height="50" viewBox="0 0 56 50" fill="none" xmlns="http://www.w3.org/2000/svg">
<path d="M33.3333 0C23.8611 0 15.8056 2.97222 12.6111 7.13889L27.1944 21.7222C29.1667 22.0278 31.1667 22.2222 33.3333 22.2222C45.6111 22.2222 55.5556 17.25 55.5556 11.1111C55.5556 4.97222 45.6111 0 33.3333 0ZM10.8889 11.3333L6.94444 15.2778L13.8889 22.2222H0V27.7778H13.8889L6.94444 34.7222L10.8889 38.6667L24.5556 25M55.5556 16.6667C55.5556 22.8056 45.6111 27.7778 33.3333 27.7778C31.5 27.7778 29.7222 27.6389 28.0278 27.4167L21.1667 34.2778C24.6667 35.4167 28.8333 36.1111 33.3333 36.1111C45.6111 36.1111 55.5556 31.1389 55.5556 25M55.5556 30.5556C55.5556 36.6944 45.6111 41.6667 33.3333 41.6667C27 41.6667 21.3056 40.2778 17.25 38.1944L12.5833 42.8611C15.7778 47.0278 23.8611 50 33.3333 50C45.6111 50 55.5556 45.0278 55.5556 38.8889" fill="white"/>
</svg>
