<svg width="128" height="128" viewBox="0 0 128 128" fill="none" xmlns="http://www.w3.org/2000/svg">
<path d="M58.6666 85.3333C58.6666 88.5333 56.5333 90.6667 53.3333 90.6667C50.1333 90.6667 47.9999 88.5333 47.9999 85.3333C47.9999 82.1333 50.1333 80 53.3333 80C56.5333 80 58.6666 82.1333 58.6666 85.3333ZM106.667 42.6667V106.667C106.667 112.533 101.867 117.333 95.9999 117.333H31.9999C26.1333 117.333 21.3333 112.533 21.3333 106.667V21.3333C21.3333 15.4667 26.1333 10.6667 31.9999 10.6667H74.6666M95.9999 80H68.2666C65.0666 71.4667 55.9999 67.2 47.9999 70.4C39.4666 73.6 35.1999 82.6667 38.3999 90.6667C41.5999 98.6667 50.6666 103.467 58.6666 100.267C63.4666 98.6667 66.6666 94.9333 68.2666 90.6667H74.6666V101.333H85.3333V90.6667H95.9999M98.6666 48L69.3333 18.6667V48H98.6666Z" fill="white"/>
</svg>
