<svg width="200" height="200" viewBox="0 0 200 200" fill="none" xmlns="http://www.w3.org/2000/svg">
<rect x="92.7725" y="29.2742" width="14.425" height="46.8105" rx="7.21249" fill="#9ECD16"/>
<rect x="29.2744" y="105.925" width="14.425" height="46.8105" rx="7.21249" transform="rotate(-90 29.2744 105.925)" fill="#0085FF"/>
<rect x="123.885" y="105.925" width="14.425" height="46.8105" rx="7.21249" transform="rotate(-90 123.885 105.925)" fill="#0085FF"/>
<rect x="92.7725" y="123.885" width="14.425" height="46.8105" rx="7.21249" fill="#FF4400"/>
<rect x="44.8999" y="55.1" width="14.425" height="46.8105" rx="7.21249" transform="rotate(-45 44.8999 55.1)" fill="#FF4400"/>
<rect x="54.2002" y="154.2" width="14.425" height="46.8105" rx="7.21249" transform="rotate(-135 54.2002 154.2)" fill="#9ECD16"/>
<rect x="121.1" y="87.3" width="14.425" height="46.8105" rx="7.21249" transform="rotate(-135 121.1 87.3)" fill="#FF4400"/>
<rect x="111.8" y="122" width="14.425" height="46.8105" rx="7.21249" transform="rotate(-45 111.8 122)" fill="#9ECD16"/>
</svg>
