<svg width="245" height="128" viewBox="0 0 245 128" fill="none" xmlns="http://www.w3.org/2000/svg">
<path d="M147 28V100C147 101.591 146.368 103.117 145.243 104.243C144.117 105.368 142.591 106 141 106C139.409 106 137.883 105.368 136.757 104.243C135.632 103.117 135 101.591 135 100V28C135 26.4087 135.632 24.8826 136.757 23.7574C137.883 22.6321 139.409 22 141 22C142.591 22 144.117 22.6321 145.243 23.7574C146.368 24.8826 147 26.4087 147 28ZM188.35 53.35L181 55.75V48C181 46.4087 180.368 44.8826 179.243 43.7574C178.117 42.6321 176.591 42 175 42C173.409 42 171.883 42.6321 170.757 43.7574C169.632 44.8826 169 46.4087 169 48V55.75L161.65 53.35C160.89 53.0613 160.08 52.9299 159.267 52.9639C158.455 52.998 157.659 53.1967 156.926 53.5479C156.193 53.8992 155.539 54.3958 155.003 55.0075C154.468 55.6192 154.063 56.3333 153.812 57.1064C153.561 57.8796 153.47 58.6956 153.544 59.5051C153.618 60.3145 153.855 61.1005 154.242 61.8153C154.629 62.5301 155.158 63.1588 155.795 63.6633C156.432 64.1678 157.165 64.5375 157.95 64.75L165.3 67.15L160.75 73.4C159.819 74.6898 159.433 76.2946 159.676 77.8668C159.92 79.4389 160.772 80.852 162.05 81.8C163.089 82.5359 164.327 82.9371 165.6 82.95C166.55 82.9545 167.487 82.7296 168.331 82.2943C169.176 81.8591 169.903 81.2264 170.45 80.45L175 74.2L179.55 80.45C180.097 81.2264 180.824 81.8591 181.669 82.2943C182.513 82.7296 183.45 82.9545 184.4 82.95C185.673 82.9371 186.911 82.5359 187.95 81.8C189.228 80.852 190.08 79.4389 190.324 77.8668C190.567 76.2946 190.181 74.6898 189.25 73.4L184.7 67.15L192.05 64.75C193.49 64.2029 194.664 63.1232 195.329 61.7344C195.995 60.3455 196.101 58.7539 195.626 57.2891C195.15 55.8242 194.13 54.5982 192.775 53.865C191.421 53.1317 189.837 52.9474 188.35 53.35ZM243.9 57.2C243.408 55.6894 242.336 54.4358 240.921 53.714C239.506 52.9923 237.862 52.8614 236.35 53.35L229 55.75V48C229 46.4087 228.368 44.8826 227.243 43.7574C226.117 42.6321 224.591 42 223 42C221.409 42 219.883 42.6321 218.757 43.7574C217.632 44.8826 217 46.4087 217 48V55.75L209.65 53.35C208.89 53.0613 208.08 52.9299 207.267 52.9639C206.455 52.998 205.659 53.1967 204.926 53.5479C204.193 53.8992 203.539 54.3958 203.003 55.0075C202.468 55.6192 202.063 56.3333 201.812 57.1064C201.561 57.8796 201.47 58.6956 201.544 59.5051C201.618 60.3145 201.855 61.1005 202.242 61.8153C202.629 62.5301 203.158 63.1588 203.795 63.6633C204.432 64.1678 205.165 64.5375 205.95 64.75L213.3 67.15L208.75 73.4C207.819 74.6898 207.433 76.2946 207.676 77.8668C207.92 79.4389 208.772 80.852 210.05 81.8C211.089 82.5359 212.327 82.9371 213.6 82.95C214.55 82.9545 215.487 82.7296 216.331 82.2943C217.176 81.8591 217.903 81.2264 218.45 80.45L223 74.2L227.55 80.45C228.097 81.2264 228.824 81.8591 229.669 82.2943C230.513 82.7296 231.45 82.9545 232.4 82.95C233.673 82.9371 234.911 82.5359 235.95 81.8C237.228 80.852 238.08 79.4389 238.324 77.8668C238.567 76.2946 238.181 74.6898 237.25 73.4L232.7 67.15L240.05 64.75C240.802 64.512 241.499 64.1269 242.1 63.6171C242.702 63.1073 243.196 62.483 243.555 61.7805C243.913 61.078 244.128 60.3113 244.187 59.5249C244.246 58.7386 244.149 57.9483 243.9 57.2Z" fill="white"/>
<path fill-rule="evenodd" clip-rule="evenodd" d="M56 0C50.48 0 41.256 2.12 32.576 4.48C23.696 6.88 14.744 9.72 9.48004 11.44C7.27917 12.1668 5.32797 13.4997 3.85058 15.2856C2.37319 17.0715 1.42954 19.2379 1.12804 21.536C-3.63996 57.352 7.42404 83.896 20.848 101.456C26.5407 108.968 33.3283 115.583 40.984 121.08C44.072 123.264 46.936 124.936 49.368 126.08C51.608 127.136 54.016 128 56 128C57.984 128 60.384 127.136 62.632 126.08C65.5639 124.655 68.3688 122.982 71.016 121.08C78.672 115.583 85.4596 108.968 91.152 101.456C104.576 83.896 115.64 57.352 110.872 21.536C110.571 19.2368 109.628 17.0691 108.15 15.2819C106.673 13.4946 104.722 12.1602 102.52 11.432C94.8785 8.92651 87.1776 6.60583 79.424 4.472C70.744 2.128 61.52 0 56 0ZM56 40C58.834 39.9958 61.5779 40.9946 63.7459 42.8197C65.9139 44.6447 67.3661 47.1782 67.8452 49.9713C68.3243 52.7644 67.7994 55.637 66.3635 58.0802C64.9276 60.5234 62.6734 62.3796 60 63.32L63.08 79.24C63.1921 79.819 63.1747 80.4157 63.0292 80.9872C62.8836 81.5588 62.6135 82.091 62.2381 82.5459C61.8627 83.0008 61.3914 83.3671 60.8579 83.6184C60.3243 83.8698 59.7418 84.0001 59.152 84H52.848C52.2589 83.9989 51.6773 83.8678 51.1448 83.6159C50.6123 83.364 50.142 82.9976 49.7675 82.5428C49.393 82.0881 49.1235 81.5562 48.9784 80.9853C48.8333 80.4143 48.8161 79.8184 48.928 79.24L52 63.32C49.3267 62.3796 47.0725 60.5234 45.6366 58.0802C44.2007 55.637 43.6758 52.7644 44.1549 49.9713C44.634 47.1782 46.0861 44.6447 48.2542 42.8197C50.4222 40.9946 53.1661 39.9958 56 40Z" fill="white"/>
</svg>
