<svg width="129" height="129" viewBox="0 0 129 129" fill="none" xmlns="http://www.w3.org/2000/svg">
<path d="M41.0606 116.697H17.7879C16.2448 116.697 14.7649 116.084 13.6738 114.993C12.5827 113.902 11.9697 112.422 11.9697 110.879V87.6061C11.9697 86.063 11.3567 84.5831 10.2656 83.492C9.17445 82.4009 7.69457 81.7879 6.15149 81.7879C4.60842 81.7879 3.12854 82.4009 2.03742 83.492C0.946298 84.5831 0.333313 86.063 0.333313 87.6061V110.879C0.333313 115.508 2.17227 119.948 5.44563 123.221C8.71899 126.494 13.1586 128.333 17.7879 128.333H41.0606C42.6037 128.333 44.0835 127.72 45.1747 126.629C46.2658 125.538 46.8788 124.058 46.8788 122.515C46.8788 120.972 46.2658 119.492 45.1747 118.401C44.0835 117.31 42.6037 116.697 41.0606 116.697V116.697ZM122.515 81.7879C120.972 81.7879 119.492 82.4009 118.401 83.492C117.31 84.5831 116.697 86.063 116.697 87.6061V110.879C116.697 112.422 116.084 113.902 114.993 114.993C113.902 116.084 112.422 116.697 110.879 116.697H87.606C86.063 116.697 84.5831 117.31 83.492 118.401C82.4008 119.492 81.7879 120.972 81.7879 122.515C81.7879 124.058 82.4008 125.538 83.492 126.629C84.5831 127.72 86.063 128.333 87.606 128.333H110.879C115.508 128.333 119.948 126.494 123.221 123.221C126.494 119.948 128.333 115.508 128.333 110.879V87.6061C128.333 86.063 127.72 84.5831 126.629 83.492C125.538 82.4009 124.058 81.7879 122.515 81.7879ZM110.879 0.333344H87.606C86.063 0.333344 84.5831 0.946329 83.492 2.03745C82.4008 3.12857 81.7879 4.60845 81.7879 6.15153C81.7879 7.6946 82.4008 9.17448 83.492 10.2656C84.5831 11.3567 86.063 11.9697 87.606 11.9697H110.879C112.422 11.9697 113.902 12.5827 114.993 13.6738C116.084 14.7649 116.697 16.2448 116.697 17.7879V41.0606C116.697 42.6037 117.31 44.0836 118.401 45.1747C119.492 46.2658 120.972 46.8788 122.515 46.8788C124.058 46.8788 125.538 46.2658 126.629 45.1747C127.72 44.0836 128.333 42.6037 128.333 41.0606V17.7879C128.333 13.1587 126.494 8.71902 123.221 5.44566C119.948 2.1723 115.508 0.333344 110.879 0.333344V0.333344ZM6.15149 46.8788C7.69457 46.8788 9.17445 46.2658 10.2656 45.1747C11.3567 44.0836 11.9697 42.6037 11.9697 41.0606V17.7879C11.9697 16.2448 12.5827 14.7649 13.6738 13.6738C14.7649 12.5827 16.2448 11.9697 17.7879 11.9697H41.0606C42.6037 11.9697 44.0835 11.3567 45.1747 10.2656C46.2658 9.17448 46.8788 7.6946 46.8788 6.15153C46.8788 4.60845 46.2658 3.12857 45.1747 2.03745C44.0835 0.946329 42.6037 0.333344 41.0606 0.333344H17.7879C13.1586 0.333344 8.71899 2.1723 5.44563 5.44566C2.17227 8.71902 0.333313 13.1587 0.333313 17.7879V41.0606C0.333313 42.6037 0.946298 44.0836 2.03742 45.1747C3.12854 46.2658 4.60842 46.8788 6.15149 46.8788ZM52.697 23.6061H29.4242C27.8811 23.6061 26.4013 24.2191 25.3101 25.3102C24.219 26.4013 23.606 27.8812 23.606 29.4243V52.697C23.606 54.2401 24.219 55.7199 25.3101 56.8111C26.4013 57.9022 27.8811 58.5152 29.4242 58.5152H52.697C54.24 58.5152 55.7199 57.9022 56.811 56.8111C57.9021 55.7199 58.5151 54.2401 58.5151 52.697V29.4243C58.5151 27.8812 57.9021 26.4013 56.811 25.3102C55.7199 24.2191 54.24 23.6061 52.697 23.6061ZM46.8788 46.8788H35.2424V35.2424H46.8788V46.8788ZM75.9697 58.5152H99.2424C100.785 58.5152 102.265 57.9022 103.356 56.8111C104.448 55.7199 105.061 54.2401 105.061 52.697V29.4243C105.061 27.8812 104.448 26.4013 103.356 25.3102C102.265 24.2191 100.785 23.6061 99.2424 23.6061H75.9697C74.4266 23.6061 72.9467 24.2191 71.8556 25.3102C70.7645 26.4013 70.1515 27.8812 70.1515 29.4243V52.697C70.1515 54.2401 70.7645 55.7199 71.8556 56.8111C72.9467 57.9022 74.4266 58.5152 75.9697 58.5152ZM81.7879 35.2424H93.4242V46.8788H81.7879V35.2424ZM52.697 70.1515H29.4242C27.8811 70.1515 26.4013 70.7645 25.3101 71.8556C24.219 72.9468 23.606 74.4266 23.606 75.9697V99.2424C23.606 100.786 24.219 102.265 25.3101 103.357C26.4013 104.448 27.8811 105.061 29.4242 105.061H52.697C54.24 105.061 55.7199 104.448 56.811 103.357C57.9021 102.265 58.5151 100.786 58.5151 99.2424V75.9697C58.5151 74.4266 57.9021 72.9468 56.811 71.8556C55.7199 70.7645 54.24 70.1515 52.697 70.1515ZM46.8788 93.4243H35.2424V81.7879H46.8788V93.4243ZM75.9697 87.6061C77.5128 87.6061 78.9926 86.9931 80.0838 85.902C81.1749 84.8108 81.7879 83.331 81.7879 81.7879C83.3309 81.7879 84.8108 81.1749 85.9019 80.0838C86.9931 78.9927 87.606 77.5128 87.606 75.9697C87.606 74.4266 86.9931 72.9468 85.9019 71.8556C84.8108 70.7645 83.3309 70.1515 81.7879 70.1515H75.9697C74.4266 70.1515 72.9467 70.7645 71.8556 71.8556C70.7645 72.9468 70.1515 74.4266 70.1515 75.9697V81.7879C70.1515 83.331 70.7645 84.8108 71.8556 85.902C72.9467 86.9931 74.4266 87.6061 75.9697 87.6061ZM99.2424 70.1515C97.6993 70.1515 96.2194 70.7645 95.1283 71.8556C94.0372 72.9468 93.4242 74.4266 93.4242 75.9697V93.4243C91.8811 93.4243 90.4013 94.0372 89.3101 95.1284C88.219 96.2195 87.606 97.6994 87.606 99.2424C87.606 100.786 88.219 102.265 89.3101 103.357C90.4013 104.448 91.8811 105.061 93.4242 105.061H99.2424C100.785 105.061 102.265 104.448 103.356 103.357C104.448 102.265 105.061 100.786 105.061 99.2424V75.9697C105.061 74.4266 104.448 72.9468 103.356 71.8556C102.265 70.7645 100.785 70.1515 99.2424 70.1515ZM75.9697 93.4243C74.819 93.4243 73.6941 93.7655 72.7373 94.4048C71.7805 95.0441 71.0347 95.9528 70.5944 97.0159C70.154 98.0791 70.0388 99.2489 70.2633 100.378C70.4878 101.506 71.0419 102.543 71.8556 103.357C72.6693 104.17 73.706 104.724 74.8346 104.949C75.9632 105.173 77.1331 105.058 78.1962 104.618C79.2593 104.177 80.168 103.432 80.8073 102.475C81.4466 101.518 81.7879 100.393 81.7879 99.2424C81.7879 97.6994 81.1749 96.2195 80.0838 95.1284C78.9926 94.0372 77.5128 93.4243 75.9697 93.4243Z" fill="white"/>
</svg>
