<svg width="60" height="50" viewBox="0 0 60 50" fill="none" xmlns="http://www.w3.org/2000/svg">
<path d="M34.0278 50C30.6019 50 27.3963 49.363 24.4111 48.0889C21.4241 46.8167 18.7963 45.0694 16.5278 42.8472L20.4861 38.8889C22.2454 40.6019 24.2824 41.9556 26.5972 42.95C28.912 43.9463 31.3889 44.4444 34.0278 44.4444C39.3981 44.4444 43.9815 42.5463 47.7778 38.75C51.5741 34.9537 53.4722 30.3704 53.4722 25C53.4722 19.6296 51.5741 15.0463 47.7778 11.25C43.9815 7.4537 39.3981 5.55556 34.0278 5.55556C28.6574 5.55556 24.0741 7.4537 20.2778 11.25C16.4815 15.0463 14.5833 19.6296 14.5833 25V25.4861L19.6528 20.4167L23.6111 24.3056L11.8056 36.1111L0 24.3056L3.95833 20.4167L9.02778 25.5556V25C9.02778 21.5278 9.68796 18.275 11.0083 15.2417C12.3269 12.2102 14.1093 9.5713 16.3556 7.325C18.6 5.08056 21.2389 3.29815 24.2722 1.97778C27.3037 0.659259 30.5556 0 34.0278 0C37.5 0 40.7528 0.659259 43.7861 1.97778C46.8176 3.29815 49.4565 5.08056 51.7028 7.325C53.9472 9.5713 55.7296 12.2102 57.05 15.2417C58.3685 18.275 59.0278 21.5278 59.0278 25C59.0278 31.9444 56.5972 37.8472 51.7361 42.7083C46.875 47.5694 40.9722 50 34.0278 50ZM25.6944 36.1111V22.2222H28.4722V19.4444C28.4722 17.9167 29.0167 16.6083 30.1056 15.5194C31.1926 14.4324 32.5 13.8889 34.0278 13.8889C35.5556 13.8889 36.8639 14.4324 37.9528 15.5194C39.0398 16.6083 39.5833 17.9167 39.5833 19.4444V22.2222H42.3611V36.1111H25.6944ZM31.25 22.2222H36.8056V19.4444C36.8056 18.6574 36.5398 17.9972 36.0083 17.4639C35.475 16.9324 34.8148 16.6667 34.0278 16.6667C33.2407 16.6667 32.5815 16.9324 32.05 17.4639C31.5167 17.9972 31.25 18.6574 31.25 19.4444V22.2222Z" fill="white"/>
</svg>
