<svg width="128" height="128" viewBox="0 0 128 128" fill="none" xmlns="http://www.w3.org/2000/svg">
<path d="M48 5.33333H80V16H48V5.33333ZM101.493 39.4133L109.067 31.84C106.773 29.12 104.267 26.56 101.547 24.32L93.9733 31.8933C85.4791 25.0577 74.9031 21.3317 64 21.3333C51.2696 21.3333 39.0606 26.3905 30.0589 35.3922C21.0571 44.3939 16 56.6029 16 69.3333C16 95.84 37.44 117.333 64 117.333C73.0363 117.338 81.8902 114.791 89.542 109.984C97.1938 105.177 103.332 98.3066 107.25 90.1639C111.168 82.0212 112.707 72.9374 111.688 63.9587C110.67 54.9799 107.136 46.4715 101.493 39.4133V39.4133ZM69.3333 74.6667H58.6667V42.6667H69.3333V74.6667Z" fill="white"/>
</svg>
