<svg width="675" height="169" viewBox="0 0 675 169" fill="none" xmlns="http://www.w3.org/2000/svg">
<rect x="5" y="5" width="665" height="158.75" rx="18" stroke="#9ECD16" stroke-width="10"/>
<rect x="365.625" y="21.0938" width="281.25" height="126.562" rx="23" fill="#9ECD16"/>
<path d="M500.547 81.8594V85.4531C500.547 89.724 500.013 93.5521 498.945 96.9375C497.878 100.323 496.341 103.201 494.336 105.57C492.331 107.94 489.922 109.75 487.109 111C484.323 112.25 481.198 112.875 477.734 112.875C474.375 112.875 471.289 112.25 468.477 111C465.69 109.75 463.268 107.94 461.211 105.57C459.18 103.201 457.604 100.323 456.484 96.9375C455.365 93.5521 454.805 89.724 454.805 85.4531V81.8594C454.805 77.5885 455.352 73.7734 456.445 70.4141C457.565 67.0286 459.141 64.151 461.172 61.7812C463.203 59.3854 465.612 57.5625 468.398 56.3125C471.211 55.0625 474.297 54.4375 477.656 54.4375C481.12 54.4375 484.245 55.0625 487.031 56.3125C489.844 57.5625 492.253 59.3854 494.258 61.7812C496.289 64.151 497.839 67.0286 498.906 70.4141C500 73.7734 500.547 77.5885 500.547 81.8594ZM493.086 85.4531V81.7812C493.086 78.3958 492.734 75.401 492.031 72.7969C491.354 70.1927 490.352 68.0052 489.023 66.2344C487.695 64.4635 486.068 63.1224 484.141 62.2109C482.24 61.2995 480.078 60.8438 477.656 60.8438C475.312 60.8438 473.19 61.2995 471.289 62.2109C469.414 63.1224 467.799 64.4635 466.445 66.2344C465.117 68.0052 464.089 70.1927 463.359 72.7969C462.63 75.401 462.266 78.3958 462.266 81.7812V85.4531C462.266 88.8646 462.63 91.8854 463.359 94.5156C464.089 97.1198 465.13 99.3203 466.484 101.117C467.865 102.888 469.492 104.229 471.367 105.141C473.268 106.052 475.391 106.508 477.734 106.508C480.182 106.508 482.357 106.052 484.258 105.141C486.159 104.229 487.76 102.888 489.062 101.117C490.391 99.3203 491.393 97.1198 492.07 94.5156C492.747 91.8854 493.086 88.8646 493.086 85.4531ZM555.586 55.2188V112.094H548.008L519.375 68.2266V112.094H511.836V55.2188H519.375L548.125 99.2031V55.2188H555.586Z" fill="white"/>
</svg>
