<svg width="675" height="169" viewBox="0 0 675 169" fill="none" xmlns="http://www.w3.org/2000/svg">
<rect x="5" y="5" width="665" height="158.75" rx="18" stroke="#005BC6" stroke-width="10"/>
<rect x="24.75" y="21.0938" width="281.25" height="126.562" rx="23" fill="#005BC6"/>
<path d="M144.008 81.8594V85.4531C144.008 89.724 143.474 93.5521 142.406 96.9375C141.339 100.323 139.802 103.201 137.797 105.57C135.792 107.94 133.383 109.75 130.57 111C127.784 112.25 124.659 112.875 121.195 112.875C117.836 112.875 114.75 112.25 111.938 111C109.151 109.75 106.729 107.94 104.672 105.57C102.641 103.201 101.065 100.323 99.9453 96.9375C98.8255 93.5521 98.2656 89.724 98.2656 85.4531V81.8594C98.2656 77.5885 98.8125 73.7734 99.9062 70.4141C101.026 67.0286 102.602 64.151 104.633 61.7812C106.664 59.3854 109.073 57.5625 111.859 56.3125C114.672 55.0625 117.758 54.4375 121.117 54.4375C124.581 54.4375 127.706 55.0625 130.492 56.3125C133.305 57.5625 135.714 59.3854 137.719 61.7812C139.75 64.151 141.299 67.0286 142.367 70.4141C143.461 73.7734 144.008 77.5885 144.008 81.8594ZM136.547 85.4531V81.7812C136.547 78.3958 136.195 75.401 135.492 72.7969C134.815 70.1927 133.812 68.0052 132.484 66.2344C131.156 64.4635 129.529 63.1224 127.602 62.2109C125.701 61.2995 123.539 60.8438 121.117 60.8438C118.773 60.8438 116.651 61.2995 114.75 62.2109C112.875 63.1224 111.26 64.4635 109.906 66.2344C108.578 68.0052 107.549 70.1927 106.82 72.7969C106.091 75.401 105.727 78.3958 105.727 81.7812V85.4531C105.727 88.8646 106.091 91.8854 106.82 94.5156C107.549 97.1198 108.591 99.3203 109.945 101.117C111.326 102.888 112.953 104.229 114.828 105.141C116.729 106.052 118.852 106.508 121.195 106.508C123.643 106.508 125.818 106.052 127.719 105.141C129.62 104.229 131.221 102.888 132.523 101.117C133.852 99.3203 134.854 97.1198 135.531 94.5156C136.208 91.8854 136.547 88.8646 136.547 85.4531ZM162.836 55.2188V112.094H155.297V55.2188H162.836ZM186.664 80.8047V86.9766H161.195V80.8047H186.664ZM190.531 55.2188V61.3906H161.195V55.2188H190.531ZM207.055 55.2188V112.094H199.516V55.2188H207.055ZM230.883 80.8047V86.9766H205.414V80.8047H230.883ZM234.75 55.2188V61.3906H205.414V55.2188H234.75Z" fill="white"/>
</svg>
