<svg width="40" height="45" viewBox="0 0 40 45" fill="none" xmlns="http://www.w3.org/2000/svg">
<path d="M37.8 19.8H9.675V7.2C9.675 5.46187 11.0869 4.05 12.825 4.05H26.775C28.5131 4.05 29.925 5.46187 29.925 7.2V11.025C29.925 11.2725 30.1275 11.475 30.375 11.475H33.525C33.7725 11.475 33.975 11.2725 33.975 11.025V7.2C33.975 3.22313 30.7519 0 26.775 0H12.825C8.84812 0 5.625 3.22313 5.625 7.2V19.8H1.8C0.804375 19.8 0 20.6044 0 21.6V43.2C0 44.1956 0.804375 45 1.8 45H37.8C38.7956 45 39.6 44.1956 39.6 43.2V21.6C39.6 20.6044 38.7956 19.8 37.8 19.8ZM21.375 33.1312V36.1125C21.375 36.36 21.1725 36.5625 20.925 36.5625H18.675C18.4275 36.5625 18.225 36.36 18.225 36.1125V33.1312C17.7607 32.7979 17.4141 32.3258 17.2352 31.7829C17.0562 31.24 17.0542 30.6544 17.2293 30.1103C17.4044 29.5661 17.7476 29.0916 18.2096 28.755C18.6715 28.4183 19.2284 28.237 19.8 28.237C20.3716 28.237 20.9285 28.4183 21.3904 28.755C21.8524 29.0916 22.1956 29.5661 22.3707 30.1103C22.5458 30.6544 22.5438 31.24 22.3648 31.7829C22.1859 32.3258 21.8393 32.7979 21.375 33.1312V33.1312Z" fill="white"/>
</svg>
