<svg width="100" height="100" viewBox="0 0 100 100" fill="none" xmlns="http://www.w3.org/2000/svg">
<path d="M41.125 1.28898e-06C39.1855 -0.0010155 37.2934 0.599549 35.7094 1.71893C34.1255 2.8383 32.9278 4.42139 32.2812 6.25H22.375C19.8886 6.25 17.504 7.23772 15.7459 8.99588C13.9877 10.754 13 13.1386 13 15.625V90.625C13 93.1114 13.9877 95.496 15.7459 97.2541C17.504 99.0123 19.8886 100 22.375 100H78.625C81.1114 100 83.496 99.0123 85.2541 97.2541C87.0123 95.496 88 93.1114 88 90.625V15.625C88 13.1386 87.0123 10.754 85.2541 8.99588C83.496 7.23772 81.1114 6.25 78.625 6.25H68.7188C68.0722 4.42139 66.8745 2.8383 65.2906 1.71893C63.7066 0.599549 61.8145 -0.0010155 59.875 1.28898e-06H41.125ZM38 9.375C38 8.5462 38.3292 7.75134 38.9153 7.16529C39.5013 6.57924 40.2962 6.25 41.125 6.25H59.875C60.7038 6.25 61.4987 6.57924 62.0847 7.16529C62.6708 7.75134 63 8.5462 63 9.375C63 10.2038 62.6708 10.9987 62.0847 11.5847C61.4987 12.1708 60.7038 12.5 59.875 12.5H41.125C40.2962 12.5 39.5013 12.1708 38.9153 11.5847C38.3292 10.9987 38 10.2038 38 9.375ZM46.4625 36.5875L35.525 47.525C34.9557 48.0937 34.1889 48.4208 33.3844 48.4382C32.5799 48.4557 31.7997 48.1622 31.2063 47.6188L26.5188 43.3375C26.2002 43.0652 25.9397 42.7317 25.7527 42.3567C25.5657 41.9818 25.456 41.573 25.4301 41.1548C25.4043 40.7365 25.4628 40.3174 25.6022 39.9222C25.7416 39.5271 25.9591 39.164 26.2417 38.8546C26.5242 38.5452 26.8662 38.2958 27.2471 38.1212C27.628 37.9466 28.0401 37.8504 28.459 37.8383C28.8778 37.8262 29.2948 37.8985 29.6852 38.0508C30.0756 38.2031 30.4313 38.4324 30.7312 38.725L33.2125 40.9875L42.0375 32.1625C42.328 31.872 42.673 31.6415 43.0526 31.4842C43.4322 31.327 43.8391 31.2461 44.25 31.2461C44.6609 31.2461 45.0678 31.327 45.4474 31.4842C45.827 31.6415 46.172 31.872 46.4625 32.1625C46.7531 32.453 46.9835 32.798 47.1408 33.1776C47.298 33.5572 47.3789 33.9641 47.3789 34.375C47.3789 34.7859 47.298 35.1928 47.1408 35.5724C46.9835 35.952 46.7531 36.297 46.4625 36.5875ZM46.4625 63.4125C46.7535 63.7028 46.9844 64.0476 47.142 64.4273C47.2995 64.8069 47.3806 65.214 47.3806 65.625C47.3806 66.036 47.2995 66.4431 47.142 66.8227C46.9844 67.2024 46.7535 67.5472 46.4625 67.8375L35.525 78.775C34.9557 79.3437 34.1889 79.6708 33.3844 79.6882C32.5799 79.7057 31.7997 79.4122 31.2063 78.8688L26.5188 74.5875C25.9382 74.0212 25.6005 73.2514 25.5771 72.4407C25.5537 71.63 25.8464 70.842 26.3933 70.2431C26.9403 69.6443 27.6986 69.2815 28.508 69.2315C29.3175 69.1814 30.1147 69.4481 30.7312 69.975L33.2125 72.2438L42.0375 63.4125C42.3278 63.1215 42.6726 62.8906 43.0523 62.733C43.4319 62.5755 43.839 62.4944 44.25 62.4944C44.661 62.4944 45.0681 62.5755 45.4477 62.733C45.8274 62.8906 46.1722 63.1215 46.4625 63.4125ZM56.75 68.75H72.375C73.2038 68.75 73.9987 69.0792 74.5847 69.6653C75.1708 70.2513 75.5 71.0462 75.5 71.875C75.5 72.7038 75.1708 73.4987 74.5847 74.0847C73.9987 74.6708 73.2038 75 72.375 75H56.75C55.9212 75 55.1263 74.6708 54.5403 74.0847C53.9542 73.4987 53.625 72.7038 53.625 71.875C53.625 71.0462 53.9542 70.2513 54.5403 69.6653C55.1263 69.0792 55.9212 68.75 56.75 68.75ZM53.625 40.625C53.625 39.7962 53.9542 39.0013 54.5403 38.4153C55.1263 37.8292 55.9212 37.5 56.75 37.5H72.375C73.2038 37.5 73.9987 37.8292 74.5847 38.4153C75.1708 39.0013 75.5 39.7962 75.5 40.625C75.5 41.4538 75.1708 42.2487 74.5847 42.8347C73.9987 43.4208 73.2038 43.75 72.375 43.75H56.75C55.9212 43.75 55.1263 43.4208 54.5403 42.8347C53.9542 42.2487 53.625 41.4538 53.625 40.625Z" fill="white"/>
</svg>
